<svg xmlns="http://www.w3.org/2000/svg" width="1500" height="1000">
  <path style="fill:#da251d;fill-opacity:1;stroke:none" d="M0 0h1500v1000H0z"/>
  <path transform="matrix(.91078 0 0 .95765 66.224047 25.111135)" style="fill:#fdf501;fill-opacity:1;stroke:none" d="m749.04304 431.08294 43.53082 127.92207 138.63232-.12-111.56655 82.26497 41.41789 126.28457-112.85738-77.68976-113.31942 79.01185 42.73094-129.0235-112.66231-80.49781 139.59373-.32647z"/>
  <path style="fill:#ff0;fill-opacity:1;stroke:none" d="M747.34375 233.15625c-43.97392 0-79.625 35.65108-79.625 79.625s35.65108 79.625 79.625 79.625 79.625-35.65108 79.625-79.625-35.65108-79.625-79.625-79.625zm0 12.125c37.27922 0 67.5 30.22078 67.5 67.5 0 37.27922-30.22078 67.5-67.5 67.5-37.27922 0-67.5-30.22078-67.5-67.5 0-37.27922 30.22078-67.5 67.5-67.5z"/>
  <path style="fill:#ff0;fill-opacity:1;stroke:none" d="M625 304.88004c-43.97392 0-79.625 35.65108-79.625 79.625s35.65108 79.625 79.625 79.625 79.625-35.65108 79.625-79.625-35.65108-79.625-79.625-79.625zm0 12.125c37.27922 0 67.5 30.22078 67.5 67.5 0 37.27922-30.22078 67.5-67.5 67.5-37.27922 0-67.5-30.22078-67.5-67.5 0-37.27922 30.22078-67.5 67.5-67.5z" transform="translate(0 -52.362183)"/>
  <path style="fill:#ff0;fill-opacity:1;stroke:none" d="M516.57143 362.59433c-43.97392 0-79.625 35.65108-79.625 79.625s35.65108 79.625 79.625 79.625 79.625-35.65108 79.625-79.625-35.65108-79.625-79.625-79.625zm0 12.125c37.27922 0 67.5 30.22078 67.5 67.5 0 37.27922-30.22078 67.5-67.5 67.5-37.27922 0-67.5-30.22078-67.5-67.5 0-37.27922 30.22078-67.5 67.5-67.5z" transform="translate(0 -52.362183)"/>
  <path style="fill:#ff0;fill-opacity:1;stroke:none" d="M428.94643 448.21933c-43.97392 0-79.625 35.65108-79.625 79.625s35.65108 79.625 79.625 79.625 79.625-35.65108 79.625-79.625-35.65108-79.625-79.625-79.625zm0 12.125c37.27922 0 67.5 30.22078 67.5 67.5 0 37.27922-30.22078 67.5-67.5 67.5-37.27922 0-67.5-30.22078-67.5-67.5 0-37.27922 30.22078-67.5 67.5-67.5zM869.6875 304.88004c43.97392 0 79.625 35.65108 79.625 79.625s-35.65108 79.625-79.625 79.625-79.625-35.65108-79.625-79.625 35.65108-79.625 79.625-79.625zm0 12.125c-37.27922 0-67.5 30.22078-67.5 67.5 0 37.27922 30.22078 67.5 67.5 67.5 37.27922 0 67.5-30.22078 67.5-67.5 0-37.27922-30.22078-67.5-67.5-67.5z" transform="translate(0 -52.362183)"/>
  <path style="fill:#ff0;fill-opacity:1;stroke:none" d="M978.11607 362.59433c43.97393 0 79.62503 35.65108 79.62503 79.625s-35.6511 79.625-79.62503 79.625c-43.97392 0-79.625-35.65108-79.625-79.625s35.65108-79.625 79.625-79.625zm0 12.125c-37.27922 0-67.5 30.22078-67.5 67.5 0 37.27922 30.22078 67.5 67.5 67.5 37.27923 0 67.50003-30.22078 67.50003-67.5 0-37.27922-30.2208-67.5-67.50003-67.5z" transform="translate(0 -52.362183)"/>
  <path style="fill:#ff0;fill-opacity:1;stroke:none" d="M1065.7411 448.21933c43.9739 0 79.625 35.65108 79.625 79.625s-35.6511 79.625-79.625 79.625-79.62503-35.65108-79.62503-79.625 35.65113-79.625 79.62503-79.625zm0 12.125c-37.2792 0-67.50003 30.22078-67.50003 67.5 0 37.27922 30.22083 67.5 67.50003 67.5 37.2792 0 67.5-30.22078 67.5-67.5 0-37.27922-30.2208-67.5-67.5-67.5z" transform="translate(0 -52.362183)"/>
</svg>
