<svg xmlns="http://www.w3.org/2000/svg" width="4096" height="2546" viewBox="0 0 4096 2546" version="1.1"><path d="M 1544.264 306 C 1536.984 327.725, 1520.149 377.840, 1506.852 417.366 L 1482.677 489.233 1448.089 488.622 C 1429.065 488.286, 1377.275 487.735, 1333 487.397 L 1252.500 486.784 1257 490.208 C 1259.475 492.091, 1302.982 524.560, 1353.682 562.361 C 1444.569 630.123, 1445.852 631.127, 1444.950 633.795 C 1441.954 642.656, 1376.055 856.389, 1376.257 856.590 C 1376.392 856.725, 1417.156 826.729, 1466.845 789.933 C 1538.572 736.815, 1557.528 723.222, 1558.843 723.964 C 1559.755 724.478, 1600.549 754.585, 1649.498 790.868 C 1698.447 827.151, 1738.607 856.727, 1738.742 856.591 C 1738.944 856.389, 1673.054 642.681, 1670.050 633.795 C 1669.148 631.127, 1670.431 630.123, 1761.318 562.361 C 1812.018 524.560, 1855.525 492.091, 1858 490.208 L 1862.500 486.784 1782 487.397 C 1737.725 487.735, 1685.942 488.285, 1666.926 488.621 L 1632.351 489.232 1613.191 432.366 C 1602.653 401.090, 1585.811 350.975, 1575.765 321 L 1557.500 266.500 1544.264 306" stroke="none" fill="#ffc61e" fill-rule="evenodd"/><path d="M 684.990 576.718 C 684.855 666.497, 733.962 821.415, 792.550 916.044 C 836.836 987.574, 874.085 1025.086, 964 1088.710 C 1162.247 1228.988, 1241.552 1273.736, 1373 1319.490 C 1444.793 1344.480, 1441.001 1343.660, 1450.858 1336.314 L 1457.217 1331.575 1416.358 1317.942 C 1282.527 1273.288, 1218.292 1241.812, 1097 1161.451 C 1050.044 1130.341, 963.252 1069.843, 930.500 1045.392 C 830.535 970.765, 758.011 850.735, 720.028 697.054 C 712.722 667.494, 701.086 604.929, 702.565 603.158 C 702.722 602.970, 893.346 749.470, 1126.175 928.713 C 1359.004 1107.955, 1550.933 1255.660, 1552.686 1256.945 L 1555.871 1259.281 1561.923 1254.224 L 1567.975 1249.167 1140.238 919.882 C 679.375 565.095, 699.200 580.345, 690.750 574.151 L 685 569.937 684.990 576.718 M 717 629.462 C 717 632.911, 726.117 676.573, 730.476 694 C 768.352 845.425, 839.314 963.586, 935.500 1035.392 C 968.252 1059.843, 1055.044 1120.341, 1102 1151.451 C 1223.705 1232.085, 1287.597 1263.368, 1420.932 1307.605 C 1443.169 1314.983, 1462.163 1321.742, 1463.139 1322.626 C 1464.787 1324.117, 1465.260 1323.982, 1469.707 1320.752 C 1472.343 1318.838, 1488.063 1307.337, 1504.640 1295.194 C 1521.217 1283.051, 1537.328 1271.486, 1540.443 1269.493 L 1546.106 1265.871 1543.803 1264.082 C 1527.695 1251.569, 718.819 629.006, 718.055 628.534 C 717.475 628.175, 717 628.593, 717 629.462 M 2499.913 642.460 C 2498.507 643.810, 2492.857 644.606, 2358 662.473 C 2326.925 666.590, 2296.550 670.640, 2290.500 671.473 C 2284.450 672.306, 2278.538 672.726, 2277.363 672.406 C 2276.187 672.087, 2274.923 672.315, 2274.554 672.913 C 2274.184 673.511, 2273.061 674, 2272.058 674 C 2270.954 674, 2270.061 674.899, 2269.798 676.275 C 2269.016 680.369, 2148.019 832, 2145.535 832 C 2143.793 832, 2125 812.615, 2125 810.818 C 2125 793.411, 2094.775 803.681, 2069.167 829.789 L 2049.833 849.500 2050.218 855.085 C 2050.842 864.122, 2054.836 870.811, 2067.277 883.653 L 2078.244 894.975 2072.979 899.737 C 2049.478 920.994, 1400.599 1379.128, 1098.500 1587.757 C 776.209 1810.331, 782 1806.284, 782 1808.972 C 782 1813.924, 831.525 1889, 834.792 1889 C 835.585 1889, 1129.842 1682.388, 1488.695 1429.863 C 2041.872 1040.592, 2141.361 970.937, 2142.508 972.113 C 2145.873 975.561, 2162.995 997.605, 2163.003 998.500 C 2163.016 999.887, 2168.959 1003.143, 2170.142 1002.412 C 2170.673 1002.084, 2173.847 1001.597, 2177.195 1001.329 C 2182.627 1000.896, 2188.688 998.698, 2195.516 994.685 C 2196.625 994.033, 2201.190 989.783, 2205.661 985.241 C 2212.244 978.554, 2215.261 976.311, 2221.514 973.462 C 2236.342 966.705, 2249.795 949.381, 2247.112 940.500 C 2246.946 939.950, 2246.642 938.651, 2246.436 937.613 C 2245.960 935.209, 2244.455 933.497, 2233.698 923.125 C 2227.188 916.848, 2225.260 914.434, 2226.292 913.857 C 2232.246 910.524, 2415.397 836.215, 2416.557 836.660 C 2418.248 837.309, 2423 832.725, 2423 830.444 C 2423 828.468, 2500.233 674.354, 2509.920 657 C 2514.256 649.233, 2512.658 643, 2506.331 643 C 2505.527 643, 2504.071 642.573, 2503.097 642.052 C 2501.868 641.394, 2500.892 641.519, 2499.913 642.460 M 2386.764 674.008 C 2330.259 681.580, 2283.432 688.004, 2282.705 688.283 C 2281.977 688.562, 2257.135 719.325, 2227.498 756.645 C 2197.862 793.965, 2170.508 828.406, 2166.710 833.180 C 2162.913 837.954, 2159.175 842.103, 2158.403 842.399 C 2155.545 843.496, 2157.586 845.878, 2185.081 873.529 C 2208.452 897.033, 2213.526 901.675, 2215.329 901.204 C 2216.520 900.892, 2260.467 882.979, 2312.989 861.395 L 2408.484 822.153 2449.323 741.077 C 2471.785 696.485, 2490.014 660.054, 2489.832 660.120 C 2489.649 660.186, 2443.269 666.435, 2386.764 674.008 M 2104.836 821.012 C 2098.191 822.182, 2067.152 851.453, 2067.045 856.651 C 2066.986 859.456, 2074.075 868.719, 2082.968 877.457 L 2090.047 884.414 2093.079 881.382 L 2096.111 878.350 2087.822 868.532 L 2079.533 858.715 2085.517 853.237 C 2088.808 850.224, 2094.425 845.353, 2098 842.413 C 2101.575 839.473, 2106.679 835.171, 2109.341 832.853 L 2114.183 828.638 2119.048 834.069 C 2125.277 841.022, 2125.451 840.217, 2115.785 849.205 L 2107.500 856.910 2110.162 859.594 L 2112.824 862.278 2117.514 858.435 C 2120.094 856.321, 2122.598 853.558, 2123.078 852.296 C 2123.558 851.033, 2124.614 850, 2125.426 850 C 2126.237 850, 2127.260 849.421, 2127.700 848.714 C 2128.140 848.007, 2129.705 846.505, 2131.178 845.376 L 2133.857 843.325 2122.678 832.297 C 2110.472 820.255, 2110.180 820.070, 2104.836 821.012 M 2126.640 871.297 L 2122.780 874.562 2130.027 883.031 C 2134.012 887.689, 2141.896 896.900, 2147.545 903.500 C 2153.194 910.100, 2160.597 918.763, 2163.997 922.750 C 2170.956 930.913, 2171.135 930.979, 2176.091 927.222 L 2179.682 924.500 2155.765 896.500 C 2128.262 864.302, 2131.548 867.145, 2126.640 871.297 M 2102.958 893.545 C 2101.260 895.353, 2100.847 896.482, 2101.533 897.443 C 2102.065 898.187, 2110.375 908.200, 2120 919.695 C 2129.625 931.189, 2139.124 942.586, 2141.110 945.022 L 2144.719 949.452 2148.374 946.664 L 2152.030 943.876 2145.765 936.614 C 2142.319 932.620, 2135 924.029, 2129.500 917.524 C 2104.554 888.018, 2106.499 889.776, 2102.958 893.545 M 2082.970 912.128 C 2079.961 914.956, 2076.375 917.979, 2075 918.846 C 2073.625 919.712, 1925.350 1025.109, 1745.500 1153.062 C 1422.017 1383.202, 1415.188 1387.992, 1110.500 1598.427 C 941.100 1715.425, 802.350 1811.566, 802.167 1812.074 C 801.737 1813.267, 836.926 1868, 838.123 1868 C 839.356 1868, 2131 959.011, 2131 958.144 C 2131 957.436, 2094.568 913.307, 2090.628 909.243 L 2088.440 906.985 2082.970 912.128 M 2195.629 932.392 L 2180.825 942.839 2184.303 946.634 L 2187.782 950.429 2193.459 945.465 C 2196.581 942.734, 2200.516 939.383, 2202.203 938.017 L 2205.271 935.535 2210.124 941.017 C 2216.124 947.795, 2216.466 946.379, 2206.853 954.563 C 2202.372 958.379, 2194.686 965.048, 2189.773 969.384 C 2182.246 976.027, 2180.632 977.050, 2179.521 975.884 C 2178.796 975.123, 2174.698 970.450, 2170.414 965.500 C 2161.512 955.214, 2162.581 955.773, 2157.883 958.950 L 2154.267 961.395 2163.741 973.198 C 2176.125 988.626, 2179.657 988.718, 2194.012 973.988 C 2200.666 967.160, 2207.593 962.205, 2216.239 958.089 C 2221.405 955.629, 2228.683 948.110, 2229.658 944.225 C 2230.183 942.134, 2228.849 940.361, 2220.352 931.864 L 2210.433 921.945 2195.629 932.392 M 2083.500 926.057 C 2078.850 929.573, 1437.908 1385.592, 1421.500 1397.058 C 1415.450 1401.286, 1277.075 1496.879, 1114 1609.486 C 950.925 1722.093, 817.351 1814.362, 817.169 1814.527 C 816.508 1815.129, 819.554 1820.124, 835.100 1843.925 C 837.768 1848.009, 840.101 1851.803, 840.285 1852.356 C 840.750 1853.751, 2114.528 957.186, 2114.382 955.565 C 2114.268 954.288, 2088.997 923.171, 2088 923.078 C 2087.725 923.053, 2085.700 924.393, 2083.500 926.057 M 1650.863 1322.881 L 1644.225 1327.579 1815.628 1459.540 C 1909.900 1532.118, 1987.407 1591.628, 1987.866 1591.783 C 1989.830 1592.451, 1998.336 1580.905, 1996.890 1579.534 C 1995.801 1578.501, 1879.766 1489.146, 1658.500 1318.951 C 1657.950 1318.528, 1654.513 1320.296, 1650.863 1322.881 M 1612.026 1350.098 C 1599.666 1358.907, 1589.381 1366.286, 1589.171 1366.495 C 1588.962 1366.705, 1593.225 1369.086, 1598.645 1371.788 C 1623.704 1384.276, 1641.638 1395.602, 1665.488 1414 C 1670.835 1418.125, 1677.301 1422.997, 1679.855 1424.828 C 1682.410 1426.658, 1685.625 1429.198, 1687 1430.472 C 1688.375 1431.746, 1691.341 1434.074, 1693.592 1435.644 C 1695.842 1437.215, 1700.117 1440.404, 1703.092 1442.731 C 1706.066 1445.059, 1711.318 1449.109, 1714.761 1451.731 C 1718.205 1454.354, 1723.605 1458.542, 1726.761 1461.038 C 1729.918 1463.534, 1733.468 1466.234, 1734.651 1467.038 C 1735.834 1467.842, 1741.156 1471.875, 1746.477 1476 C 1751.799 1480.125, 1758.293 1485.075, 1760.910 1487 C 1765.911 1490.679, 1773.134 1496.270, 1781.500 1502.938 C 1784.250 1505.130, 1787.934 1507.953, 1789.688 1509.211 C 1791.441 1510.470, 1796.503 1514.313, 1800.938 1517.750 C 1817.538 1530.618, 1825.332 1536.600, 1829.932 1540 C 1836.068 1544.536, 1844.607 1551.161, 1848.878 1554.701 C 1850.736 1556.240, 1854.154 1558.850, 1856.473 1560.500 C 1858.793 1562.150, 1863.123 1565.404, 1866.096 1567.731 C 1869.068 1570.059, 1874.317 1574.109, 1877.760 1576.731 C 1881.203 1579.354, 1886.578 1583.525, 1889.705 1586 C 1892.832 1588.475, 1897.275 1591.850, 1899.578 1593.500 C 1906.151 1598.210, 1915.032 1605.062, 1920.608 1609.727 C 1923.417 1612.077, 1926.040 1614, 1926.437 1614 C 1926.833 1614, 1929.710 1616.138, 1932.829 1618.750 C 1935.948 1621.362, 1939.243 1623.950, 1940.151 1624.500 C 1941.059 1625.050, 1943.837 1627.213, 1946.324 1629.307 L 1950.845 1633.114 1966.350 1617.307 C 1974.877 1608.613, 1981.550 1601.213, 1981.177 1600.863 C 1980.805 1600.512, 1904.900 1542.069, 1812.500 1470.990 C 1720.100 1399.911, 1642.394 1340.010, 1639.821 1337.877 C 1634.141 1333.171, 1638.412 1331.294, 1612.026 1350.098 M 1571.177 1380.116 L 1564.855 1385.165 1585.677 1395.535 C 1622.009 1413.630, 1606.854 1402.697, 1786.093 1540.122 C 1900.320 1627.703, 1932.691 1652.054, 1933.885 1651.301 C 1935.871 1650.048, 1943.456 1641.102, 1942.915 1640.651 C 1942.291 1640.131, 1725.017 1473.591, 1682.500 1441.044 C 1610.314 1385.784, 1582.882 1370.771, 1571.177 1380.116 M 2112.500 1430.402 C 2102.109 1433.697, 2098.009 1437.168, 2097.991 1442.684 C 2097.986 1444.233, 2095.815 1457.361, 2093.167 1471.857 L 2088.353 1498.214 2051.426 1540.267 C 1867.369 1749.877, 1873.370 1743.825, 1848.473 1744.955 L 1836.446 1745.500 1828.607 1751.909 C 1808.093 1768.681, 1795.165 1782.794, 1796.490 1786.970 C 1797.052 1788.740, 1874.623 1856.382, 1886.403 1865.374 C 1892.442 1869.983, 1883.196 1879.201, 1958.245 1793.750 L 2022.139 1721 2030.319 1727.367 C 2034.819 1730.868, 2059.411 1749.769, 2084.969 1769.368 L 2131.439 1805.003 2133.073 1816.251 C 2141.733 1875.866, 2166.591 1903.005, 2212.665 1903.147 C 2269.556 1903.323, 2311.237 1884.583, 2332.145 1849.429 C 2337.307 1840.750, 2337.316 1840.412, 2332.471 1837.314 C 2321.472 1830.279, 2086.978 1648.500, 2087.419 1647.351 C 2087.699 1646.620, 2115.057 1615.132, 2148.214 1577.378 C 2212.153 1504.573, 2207.313 1466.179, 2129.756 1430.976 C 2124.901 1428.772, 2118.329 1428.554, 2112.500 1430.402 M 2115.751 1445.689 C 2113.687 1446.229, 2114.174 1444.251, 2108.531 1474.968 C 2105.765 1490.021, 2104.392 1499.792, 2104.963 1500.363 C 2106.005 1501.405, 2102.138 1508.937, 2100.500 1509.059 C 2099.950 1509.100, 2088.250 1522.003, 2074.500 1537.733 C 1979.713 1646.167, 1900.281 1735.059, 1888.776 1745.574 C 1878.443 1755.018, 1862.966 1761, 1848.866 1761 L 1842.051 1761 1835.276 1766.863 C 1831.549 1770.087, 1825.649 1775.375, 1822.164 1778.613 L 1815.828 1784.500 1849.545 1813.500 C 1868.090 1829.450, 1884.739 1843.738, 1886.545 1845.251 L 1889.827 1848.003 1961.592 1766.251 C 2001.063 1721.288, 2068.191 1644.821, 2110.765 1596.325 C 2153.339 1547.829, 2188.158 1507.867, 2188.140 1507.520 C 2188.087 1506.471, 2126.646 1447.416, 2124.304 1446.163 C 2122.131 1445, 2119.042 1444.829, 2115.751 1445.689 M 2119.182 1476.750 C 2117.404 1486.513, 2115.961 1497.482, 2115.975 1501.128 C 2115.993 1505.823, 2115.563 1508.118, 2114.500 1509 C 2113.675 1509.685, 2113 1510.828, 2113 1511.540 C 2113 1512.252, 2110.580 1515.009, 2107.623 1517.667 C 2104.665 1520.325, 2082.295 1545.225, 2057.910 1573 C 1938.584 1708.916, 1897.209 1754.524, 1887.500 1760.845 C 1876.830 1767.791, 1866.686 1771, 1855.398 1771 L 1847.051 1771 1840.026 1777.047 C 1831.478 1784.403, 1833.396 1786.934, 1870 1816.601 C 1871.925 1818.161, 1876.799 1822.351, 1880.830 1825.913 C 1887.665 1831.951, 2163.714 1531.758, 2172.584 1508.641 C 2172.967 1507.644, 2124.182 1459, 2122.798 1459 C 2122.587 1459, 2120.959 1466.987, 2119.182 1476.750 M 2054.500 1684.067 C 2042.950 1697.282, 2033.368 1708.470, 2033.206 1708.929 C 2032.889 1709.830, 2143.389 1795, 2144.874 1795 C 2146.684 1795, 2148.831 1799.550, 2147.849 1801.305 C 2144.771 1806.805, 2153.163 1840.503, 2161.829 1857.446 C 2177.879 1888.823, 2212.692 1896.770, 2264.500 1880.883 C 2286.096 1874.261, 2316.479 1853.204, 2315.952 1845.224 C 2315.910 1844.581, 2077.650 1660.842, 2076.117 1660.270 C 2075.778 1660.143, 2066.050 1670.852, 2054.500 1684.067 M 2062.385 1691.375 L 2048.270 1707.603 2051.018 1709.552 C 2054.284 1711.867, 2063.141 1718.775, 2067.878 1722.701 C 2069.736 1724.240, 2073.154 1726.850, 2075.473 1728.500 C 2077.793 1730.150, 2082.123 1733.404, 2085.096 1735.731 C 2088.068 1738.059, 2093.317 1742.109, 2096.760 1744.731 C 2100.203 1747.354, 2105.587 1751.525, 2108.726 1754 C 2114.180 1758.301, 2118.061 1761.240, 2128.533 1769 C 2131.131 1770.925, 2136.449 1775.088, 2140.350 1778.250 C 2144.252 1781.412, 2148.332 1784, 2149.417 1784 C 2151.593 1784, 2157 1788.681, 2157 1790.565 C 2157 1791.219, 2157.675 1792.315, 2158.500 1793 C 2160.277 1794.475, 2160.586 1804.014, 2158.911 1805.689 C 2154.683 1809.917, 2169.022 1851.257, 2179.171 1864.097 C 2190.246 1878.108, 2216.535 1881.520, 2250.500 1873.356 C 2274.017 1867.702, 2304.188 1850.719, 2299.283 1845.896 C 2297.372 1844.017, 2077.450 1675.008, 2077.002 1675.074 C 2076.726 1675.114, 2070.148 1682.450, 2062.385 1691.375" stroke="none" fill="#fffefe" fill-rule="evenodd"/><path d="M 0 1921 L 0 2546 2048.250 2545.750 L 4096.500 2545.500 4096.751 1920.500 L 4097.002 1295.500 2887.960 1295.751 L 1678.918 1296.002 1256.879 1592.993 C 909.845 1837.203, 834.520 1889.814, 833.043 1889.023 C 831.391 1888.139, 784.241 1815.818, 781.744 1810.337 C 780.263 1807.086, 748.080 1829.705, 1096 1589.468 C 1350.223 1413.929, 1509.700 1302.941, 1516.450 1296.856 C 1516.987 1296.372, 1514.377 1296.010, 1510.450 1296.023 L 1503.500 1296.046 1484.213 1310.145 C 1466.664 1322.972, 1464.772 1324.109, 1463.213 1322.752 C 1462.271 1321.932, 1444.400 1315.577, 1423.500 1308.630 L 1385.500 1296 1369.500 1296.070 L 1353.500 1296.141 1359.500 1298.482 C 1362.800 1299.770, 1386.132 1307.710, 1411.350 1316.128 L 1457.199 1331.432 1454.672 1333.466 C 1447.718 1339.062, 1443.110 1342, 1441.284 1342 C 1437.046 1342, 1349.545 1311.787, 1322.234 1300.893 L 1309.967 1296 654.984 1296 L 0 1296 0 1921 M 0.497 1921 C 0.497 2265.025, 0.611 2405.762, 0.750 2233.750 C 0.889 2061.737, 0.889 1780.262, 0.750 1608.250 C 0.611 1436.237, 0.497 1576.975, 0.497 1921 M 1486 1337.704 C 1453.825 1360.632, 1286.875 1476.537, 1115 1595.271 C 943.125 1714.004, 802.350 1811.566, 802.167 1812.074 C 801.609 1813.621, 837.179 1868.116, 838.538 1867.797 C 839.231 1867.633, 1022.356 1739.025, 1245.484 1582 L 1651.171 1296.500 1642.044 1296.212 C 1634.409 1295.971, 1632.473 1296.233, 1630.208 1297.814 C 1628.719 1298.853, 1450.506 1424.239, 1234.180 1576.448 C 1017.854 1728.658, 840.748 1853.037, 840.611 1852.847 C 837.816 1848.956, 817.006 1815.801, 817.020 1815.260 C 817.030 1814.842, 953.235 1720.450, 1119.696 1605.500 C 1355.070 1442.963, 1557.138 1302.045, 1562.917 1296.406 C 1563.146 1296.183, 1559.096 1296.004, 1553.917 1296.008 L 1544.500 1296.016 1486 1337.704 M 1650.863 1322.880 L 1644.226 1327.579 1811.753 1456.539 C 1903.892 1527.468, 1981.262 1587.038, 1983.684 1588.919 L 1988.089 1592.337 1993.045 1587.456 C 1999.733 1580.868, 2001.060 1582.612, 1972.750 1560.795 C 1917.487 1518.205, 1664.776 1323.714, 1658.500 1318.942 C 1657.950 1318.524, 1654.513 1320.296, 1650.863 1322.880 M 1612 1350.107 C 1585.957 1368.655, 1587.553 1366.858, 1594.467 1369.851 C 1603.801 1373.892, 1626.896 1386.879, 1638.440 1394.577 C 1650.415 1402.563, 1649.712 1402.028, 1829.212 1539.691 L 1950.924 1633.034 1966.389 1617.267 C 1974.895 1608.595, 1981.550 1601.213, 1981.177 1600.863 C 1980.805 1600.512, 1904.900 1542.069, 1812.500 1470.990 C 1720.100 1399.911, 1642.394 1340.010, 1639.821 1337.877 C 1634.141 1333.171, 1638.416 1331.292, 1612 1350.107 M 1570.740 1380.139 L 1563.981 1385.220 1575.430 1390.489 C 1595.373 1399.666, 1613.975 1410.098, 1629.500 1420.811 C 1638.973 1427.349, 1643.002 1430.421, 1805.715 1555.192 C 1875.133 1608.424, 1932.283 1652.087, 1932.715 1652.223 C 1933.147 1652.358, 1935.856 1649.964, 1938.735 1646.904 L 1943.970 1641.339 1937.235 1636.266 C 1933.531 1633.476, 1926.675 1628.228, 1922 1624.604 C 1917.325 1620.980, 1907.200 1613.207, 1899.500 1607.330 C 1891.800 1601.453, 1882.690 1594.466, 1879.255 1591.804 C 1872.836 1586.828, 1860.741 1577.563, 1851.443 1570.500 C 1843.776 1564.676, 1820.780 1546.994, 1811.450 1539.750 C 1807.023 1536.313, 1801.623 1532.155, 1799.450 1530.510 C 1797.278 1528.866, 1784.025 1518.721, 1770 1507.966 C 1755.975 1497.212, 1739.550 1484.637, 1733.500 1480.022 C 1727.450 1475.408, 1719.690 1469.457, 1716.255 1466.797 C 1712.820 1464.138, 1706.520 1459.309, 1702.255 1456.066 C 1697.990 1452.822, 1688.875 1445.847, 1682 1440.564 C 1610.963 1385.980, 1583.101 1370.848, 1570.740 1380.139 M 2110 1430.875 C 2099.859 1435.166, 2096.512 1438.317, 2097.577 1442.574 C 2098.304 1445.483, 2088.420 1497.861, 2086.776 1499.810 C 2069.401 1520.405, 1930.790 1677.085, 1899.714 1711.258 C 1873.235 1740.375, 1865.591 1745.342, 1848 1744.859 C 1838.645 1744.602, 1833.017 1745.527, 1832.969 1747.329 C 1832.952 1747.973, 1830.992 1749.965, 1828.613 1751.756 C 1797.468 1775.205, 1792.556 1784.777, 1805.750 1796.313 C 1843.929 1829.695, 1890.474 1869.045, 1891.485 1868.796 C 1892.143 1868.633, 1921.791 1835.332, 1957.368 1794.794 L 2022.055 1721.088 2044.278 1738.153 C 2056.500 1747.539, 2080.990 1766.307, 2098.699 1779.859 L 2130.898 1804.500 2131.512 1809 C 2139.204 1865.404, 2162.460 1899.115, 2196.323 1902.950 C 2241.831 1908.104, 2293.698 1893.114, 2317.814 1867.838 C 2333.148 1851.766, 2339.241 1840.258, 2333.614 1837.998 C 2332.451 1837.531, 2304.470 1816.303, 2271.434 1790.824 C 2238.397 1765.346, 2183.385 1722.949, 2149.184 1696.608 C 2114.983 1670.267, 2087 1648.348, 2087 1647.899 C 2087 1647.449, 2114.747 1615.481, 2148.660 1576.858 L 2210.321 1506.634 2195.910 1492.681 C 2187.985 1485.007, 2170.883 1468.411, 2157.906 1455.802 C 2128.941 1427.655, 2123.859 1425.011, 2110 1430.875 M 2115.751 1445.689 C 2113.687 1446.229, 2114.173 1444.257, 2108.538 1474.928 C 2105.180 1493.206, 2104.330 1499.693, 2105.163 1500.696 C 2105.995 1501.699, 2105.901 1502.475, 2104.790 1503.769 C 2103.973 1504.721, 2103.025 1506.287, 2102.683 1507.250 C 2102.342 1508.213, 2101.486 1509.030, 2100.781 1509.067 C 2100.077 1509.103, 2088.250 1522.003, 2074.500 1537.732 C 2000.784 1622.059, 1914.041 1719.597, 1896.974 1737.349 C 1879.979 1755.028, 1868.533 1760.745, 1849.776 1760.926 L 1842.051 1761 1835.276 1766.863 C 1831.549 1770.087, 1825.649 1775.375, 1822.164 1778.613 L 1815.828 1784.500 1849.545 1813.500 C 1868.090 1829.450, 1884.721 1843.723, 1886.503 1845.217 L 1889.743 1847.934 2038.721 1678.217 C 2120.659 1584.873, 2187.879 1508.263, 2188.100 1507.974 C 2188.585 1507.337, 2130.221 1450.434, 2125.817 1447.250 C 2122.882 1445.128, 2119.753 1444.643, 2115.751 1445.689 M 2119.182 1476.750 C 2117.404 1486.513, 2115.961 1497.074, 2115.975 1500.219 C 2116.006 1507.417, 2113.479 1512.501, 2107.014 1518.244 C 2104.379 1520.585, 2085.644 1541.400, 2065.381 1564.500 C 1882.564 1772.910, 1884.525 1771, 1853.342 1771 C 1847.264 1771, 1833 1780.109, 1833 1783.990 C 1833 1784.484, 1845.522 1795.663, 1860.827 1808.834 L 1888.655 1832.780 2029.577 1672.329 C 2107.085 1584.081, 2171.153 1510.951, 2171.952 1509.819 C 2173.227 1508.010, 2126.263 1459.345, 2122.957 1459.049 C 2122.658 1459.022, 2120.959 1466.987, 2119.182 1476.750 M 2054.500 1684.067 C 2042.950 1697.282, 2033.370 1708.464, 2033.211 1708.916 C 2033.051 1709.367, 2037.258 1713.059, 2042.558 1717.118 C 2047.859 1721.178, 2057.664 1728.700, 2064.348 1733.834 C 2071.032 1738.968, 2079.990 1745.822, 2084.255 1749.066 C 2088.520 1752.309, 2094.820 1757.134, 2098.255 1759.787 C 2101.690 1762.441, 2107.535 1766.958, 2111.245 1769.825 C 2114.955 1772.691, 2121.480 1777.675, 2125.745 1780.900 C 2130.010 1784.124, 2135.525 1788.387, 2138 1790.372 C 2140.475 1792.357, 2143.512 1793.985, 2144.750 1793.990 C 2146.297 1793.997, 2147 1794.599, 2147 1795.917 C 2147 1796.971, 2147.563 1798.037, 2148.250 1798.286 C 2149.242 1798.645, 2149.231 1799.193, 2148.199 1800.938 C 2144.793 1806.693, 2153.274 1841.363, 2162.198 1858.169 C 2176.703 1885.484, 2199.890 1893.210, 2244.530 1885.602 C 2275.255 1880.365, 2316.885 1856.756, 2315.952 1845.097 C 2315.907 1844.536, 2077.443 1660.765, 2076.117 1660.270 C 2075.778 1660.143, 2066.050 1670.852, 2054.500 1684.067 M 2062.357 1691.407 L 2048.214 1707.667 2097.611 1745.584 C 2124.780 1766.438, 2147.794 1783.656, 2148.754 1783.847 C 2154.854 1785.061, 2159.456 1793.725, 2158.740 1802.648 C 2156.380 1832.051, 2176.373 1869.346, 2198.125 1876.116 C 2224.510 1884.328, 2308.461 1859.766, 2299.458 1846.468 C 2298.406 1844.914, 2077.812 1674.955, 2077.002 1675.074 C 2076.726 1675.114, 2070.136 1682.465, 2062.357 1691.407" stroke="none" fill="#d40404" fill-rule="evenodd"/><path d="M 0 648 L 0 1296 654.750 1295.982 L 1309.500 1295.964 1293.500 1289.126 C 1201.407 1249.769, 1058.605 1160.981, 918.500 1055.969 C 811.716 975.931, 735.096 843.376, 698.580 675.500 C 691.259 641.845, 684.328 590.328, 685.171 575.834 L 685.500 570.168 699 580.353 C 706.425 585.955, 904.982 738.730, 1140.238 919.853 L 1567.975 1249.167 1561.923 1254.224 L 1555.871 1259.281 1552.686 1256.945 C 1550.933 1255.660, 1359.004 1107.955, 1126.175 928.713 C 893.346 749.470, 702.722 602.970, 702.565 603.158 C 701.086 604.929, 712.722 667.494, 720.028 697.054 C 758.011 850.735, 830.535 970.765, 930.500 1045.392 C 936.550 1049.909, 952.300 1061.265, 965.500 1070.629 C 1145.602 1198.387, 1223.225 1244.716, 1325.680 1285.603 L 1351.860 1296.050 1368.097 1295.775 L 1384.334 1295.500 1368.917 1290.097 C 1261.359 1252.405, 1174.180 1203.597, 1014.500 1091.672 C 926.294 1029.846, 914.865 1021.020, 887.460 993.569 C 815.240 921.224, 760.988 817.322, 730.028 692.054 C 724.755 670.721, 716.604 630.688, 717.181 628.958 C 717.364 628.408, 899.086 767.750, 1121.007 938.606 C 1342.928 1109.463, 1529.345 1252.976, 1535.266 1257.524 L 1546.032 1265.795 1537.766 1271.335 C 1533.220 1274.382, 1523.674 1281.178, 1516.552 1286.438 L 1503.605 1296 1510.642 1296 L 1517.679 1296 1792.697 1100.250 C 1943.957 992.587, 2070.084 902.357, 2072.980 899.737 L 2078.244 894.975 2067.277 883.653 C 2054.836 870.811, 2050.842 864.122, 2050.218 855.085 L 2049.833 849.500 2069.167 829.789 C 2094.804 803.651, 2125 793.411, 2125 810.854 C 2125 812.649, 2143.826 832, 2145.572 832 C 2148.025 832, 2269.025 680.320, 2269.798 676.275 C 2270.061 674.899, 2270.954 674, 2272.058 674 C 2273.061 674, 2274.184 673.511, 2274.554 672.913 C 2274.923 672.315, 2276.187 672.087, 2277.363 672.406 C 2278.538 672.726, 2284.450 672.306, 2290.500 671.473 C 2296.550 670.640, 2326.925 666.590, 2358 662.473 C 2489.642 645.032, 2498.514 643.781, 2500.023 642.448 C 2501.038 641.550, 2502.038 641.413, 2503.023 642.035 C 2503.835 642.549, 2505.241 642.976, 2506.147 642.985 C 2512.665 643.045, 2514.306 649.142, 2509.920 657 C 2500.233 674.354, 2423 828.468, 2423 830.444 C 2423 832.725, 2418.248 837.309, 2416.557 836.660 C 2415.397 836.215, 2232.246 910.524, 2226.292 913.857 C 2225.260 914.434, 2227.188 916.848, 2233.698 923.125 C 2244.455 933.497, 2245.960 935.209, 2246.436 937.613 C 2246.642 938.651, 2246.946 939.950, 2247.112 940.500 C 2249.795 949.381, 2236.342 966.705, 2221.514 973.462 C 2215.261 976.311, 2212.244 978.554, 2205.661 985.241 C 2201.190 989.783, 2196.625 994.033, 2195.516 994.685 C 2188.688 998.698, 2182.627 1000.896, 2177.195 1001.329 C 2173.847 1001.597, 2170.673 1002.084, 2170.142 1002.412 C 2168.959 1003.143, 2163.016 999.887, 2163.003 998.500 C 2162.995 997.606, 2145.873 975.562, 2142.509 972.114 C 2141.363 970.939, 2105.971 995.487, 1910.390 1133.114 L 1679.624 1295.500 2887.062 1295.755 C 3551.153 1295.896, 4095.063 1295.797, 4095.750 1295.537 C 4096.748 1295.158, 4097 1164.637, 4097 647.531 L 4097 0 2048.500 0 L 0 0 0 648 M 0.497 648.500 C 0.497 1004.900, 0.611 1150.551, 0.750 972.168 C 0.889 793.785, 0.889 502.185, 0.750 324.168 C 0.611 146.151, 0.497 292.100, 0.497 648.500 M 1544.264 306 C 1536.984 327.725, 1520.149 377.840, 1506.852 417.366 L 1482.677 489.233 1448.089 488.622 C 1429.065 488.286, 1377.275 487.735, 1333 487.397 L 1252.500 486.784 1257 490.208 C 1259.475 492.091, 1302.982 524.560, 1353.682 562.361 C 1444.569 630.123, 1445.852 631.127, 1444.950 633.795 C 1441.954 642.656, 1376.055 856.389, 1376.257 856.590 C 1376.392 856.725, 1417.156 826.729, 1466.845 789.933 C 1538.572 736.815, 1557.528 723.222, 1558.843 723.964 C 1559.755 724.478, 1600.549 754.585, 1649.498 790.868 C 1698.447 827.151, 1738.607 856.727, 1738.742 856.591 C 1738.944 856.389, 1673.054 642.681, 1670.050 633.795 C 1669.148 631.127, 1670.431 630.123, 1761.318 562.361 C 1812.018 524.560, 1855.525 492.091, 1858 490.208 L 1862.500 486.784 1782 487.397 C 1737.725 487.735, 1685.942 488.285, 1666.926 488.621 L 1632.351 489.232 1613.191 432.366 C 1602.653 401.090, 1585.811 350.975, 1575.765 321 L 1557.500 266.500 1544.264 306 M 2386.764 674.008 C 2330.259 681.580, 2283.432 688.004, 2282.705 688.283 C 2281.977 688.562, 2257.135 719.325, 2227.498 756.645 C 2197.862 793.965, 2170.508 828.406, 2166.710 833.180 C 2162.913 837.954, 2159.175 842.103, 2158.403 842.399 C 2155.545 843.496, 2157.586 845.878, 2185.081 873.529 C 2208.452 897.033, 2213.526 901.675, 2215.329 901.204 C 2216.520 900.892, 2260.467 882.979, 2312.989 861.395 L 2408.484 822.153 2449.323 741.077 C 2471.785 696.485, 2490.014 660.054, 2489.832 660.120 C 2489.649 660.186, 2443.269 666.435, 2386.764 674.008 M 2104.836 821.012 C 2098.191 822.182, 2067.152 851.453, 2067.045 856.651 C 2066.986 859.456, 2074.075 868.719, 2082.968 877.457 L 2090.047 884.414 2093.079 881.382 L 2096.111 878.350 2087.822 868.532 L 2079.533 858.715 2085.517 853.237 C 2088.808 850.224, 2094.425 845.353, 2098 842.413 C 2101.575 839.473, 2106.679 835.171, 2109.341 832.853 L 2114.183 828.638 2119.048 834.069 C 2125.277 841.022, 2125.451 840.217, 2115.785 849.205 L 2107.500 856.910 2110.162 859.594 L 2112.824 862.278 2117.514 858.435 C 2120.094 856.321, 2122.598 853.558, 2123.078 852.296 C 2123.558 851.033, 2124.614 850, 2125.426 850 C 2126.237 850, 2127.260 849.421, 2127.700 848.714 C 2128.140 848.007, 2129.705 846.505, 2131.178 845.376 L 2133.857 843.325 2122.678 832.297 C 2110.472 820.255, 2110.180 820.070, 2104.836 821.012 M 2126.640 871.297 L 2122.780 874.562 2130.027 883.031 C 2134.012 887.689, 2141.896 896.900, 2147.545 903.500 C 2153.194 910.100, 2160.597 918.763, 2163.997 922.750 C 2170.956 930.913, 2171.135 930.979, 2176.091 927.222 L 2179.682 924.500 2155.765 896.500 C 2128.262 864.302, 2131.548 867.145, 2126.640 871.297 M 2102.958 893.545 C 2101.260 895.353, 2100.847 896.482, 2101.533 897.443 C 2102.065 898.187, 2110.375 908.200, 2120 919.695 C 2129.625 931.189, 2139.124 942.586, 2141.110 945.022 L 2144.719 949.452 2148.374 946.664 L 2152.030 943.876 2145.765 936.614 C 2142.319 932.620, 2135 924.029, 2129.500 917.524 C 2104.554 888.018, 2106.499 889.776, 2102.958 893.545 M 2082.970 912.131 C 2079.961 914.960, 2075.886 918.298, 2073.914 919.547 C 2070.959 921.418, 1546.408 1294.460, 1545.083 1295.631 C 1544.854 1295.834, 1548.929 1296, 1554.139 1296 L 1563.611 1296 1821.555 1112.533 C 1963.425 1011.627, 2081.425 927.639, 2083.778 925.895 C 2086.131 924.150, 2088.194 922.898, 2088.361 923.112 C 2088.529 923.325, 2094.591 930.623, 2101.833 939.329 C 2109.075 948.035, 2115 955.478, 2115 955.868 C 2115 956.258, 2006.629 1032.834, 1874.175 1126.038 L 1633.350 1295.500 1642.561 1295.785 L 1651.771 1296.070 1891.386 1127.452 C 2023.174 1034.713, 2131 958.524, 2131 958.144 C 2131 957.436, 2094.569 913.308, 2090.628 909.243 L 2088.440 906.985 2082.970 912.131 M 2195.629 932.392 L 2180.825 942.839 2184.303 946.634 L 2187.782 950.429 2193.459 945.465 C 2196.581 942.734, 2200.516 939.383, 2202.203 938.017 L 2205.271 935.535 2210.124 941.017 C 2216.124 947.795, 2216.466 946.379, 2206.853 954.563 C 2202.372 958.379, 2194.686 965.048, 2189.773 969.384 C 2182.246 976.027, 2180.632 977.050, 2179.521 975.884 C 2178.796 975.123, 2174.698 970.450, 2170.414 965.500 C 2161.512 955.214, 2162.581 955.773, 2157.883 958.950 L 2154.267 961.395 2163.741 973.198 C 2176.125 988.626, 2179.657 988.718, 2194.012 973.988 C 2200.666 967.160, 2207.593 962.205, 2216.239 958.089 C 2221.405 955.629, 2228.683 948.110, 2229.658 944.225 C 2230.183 942.134, 2228.849 940.361, 2220.352 931.864 L 2210.433 921.945 2195.629 932.392" stroke="none" fill="#047cfb" fill-rule="evenodd"/></svg>